<?xml version="1.0" encoding="utf-8"?>
<!-- Generator: Adobe Illustrator 27.3.1, SVG Export Plug-In . SVG Version: 6.00 Build 0)  -->
<svg version="1.1" id="Layer_1" xmlns="http://www.w3.org/2000/svg" xmlns:xlink="http://www.w3.org/1999/xlink" x="0px" y="0px"
	 viewBox="0 0 428 293" style="enable-background:new 0 0 428 293;" xml:space="preserve">
<style type="text/css">
	.st0{fill:#FFFFFF;stroke:#FFFFFF;stroke-miterlimit:10;}
	.st1{fill:none;}
	.st2{font-family:'Montserrat-Bold';}
	.st3{font-size:20px;}
</style>
<g>
	<path class="st0" d="M390.2,109.9c-7-2.5-14.4-2.9-21.8-2.2c-0.1,0.5-0.2,1-0.3,1.5c-0.2,1.2-2.3,1.2-2-0.1
		c1.8-8.7,1.1-17.7-1.8-26.1c-5.1-15.1-16.9-27.5-32.3-32.2c-7.8-2.4-16.2-2.8-24.3-1.4c-4,0.7-7.9,1.8-11.6,3.5
		c-3.1,1.4-5.9,3.2-8.8,4.8c0.3,1.3,0.5,2.6,0.6,3.9c0.1,1.3-2.2,1.9-2.3,0.4c-1.7-14.6-10.8-27.4-22.5-35.9
		c-11.1-8.1-24.4-12.9-37.7-15.9c-14.1-3.1-28.8-3.9-43-1.2c-24.2,4.6-46.6,20.8-54.6,44.8c-0.1,0.2-0.2,0.3-0.3,0.3
		c0.6,0,1.3,0.1,1.9,0.1c0.9,0.1,0.5,1.3-0.3,1.3c-3-0.2-6-0.3-9.1-0.3c-23.8-0.4-48.1,3.4-69.1,15c-18.9,10.5-34.4,27.3-40.2,48.4
		C8,129,7.6,140.2,10.3,150.8c2.4,9.3,7,17.8,13.2,25.1c13.1,15.5,31.9,25.1,51.4,29.7c24.3,5.7,49.3,4,74.1,3
		c1.5-0.1,1,2.3-0.3,2.4c-3.2,0.2-6.4,0.5-9.6,0.6c-4.1,0.2-8.3,0.4-12.5,0.5c1.8,1.9,3.4,3.9,5.4,5.7c2.5,2.2,5.2,4,8.1,5.6
		c11,6.1,23.9,7.9,36.2,5.8c13-2.1,25.1-8.1,35.7-15.9c-0.3-0.4,0.3-1,0.7-0.7c0,0,0.1,0,0.1,0.1c0.3-0.2,0.5-0.4,0.8-0.6
		c1.1-0.9,2.2,0.7,1.1,1.5c0,0-0.1,0.1-0.2,0.1c5.3,3.2,10.7,6,16.6,7.7c11.5,3.4,24.1,3.2,35.4-0.9c5.4-2,10.5-4.7,15.1-8.2
		c4.7-3.5,8.4-7.8,12.3-12c0.1-0.1,0.3-0.2,0.4-0.2c-10.1-2.6-19.8-6.3-28.9-11.2c-1.3-0.7,0.4-2.8,1.5-2.2c2,1,4.1,2,6.1,2.9
		c16.2,7.3,33.7,11.6,51.4,12.7c17.7,1.1,35.8-0.9,52.6-6.4c15.1-4.9,30.5-13.4,37.6-28.3c6.8-14.4,4.7-32.7-5.6-45
		C404.1,116.8,397.5,112.4,390.2,109.9z"/>
	<ellipse class="st0" cx="132.5" cy="217" rx="20" ry="11.5"/>
	<ellipse class="st0" cx="112" cy="251.5" rx="17.5" ry="9"/>
	<ellipse class="st0" cx="89" cy="278.5" rx="9.5" ry="7"/>
</g>
<rect x="70" y="96.4" class="st1" width="275" height="88.6"/>
<text transform="matrix(1 0 0 1 78.1104 111.2646)"><tspan x="0" y="0" class="st2 st3">“My boss has no idea I’m </tspan><tspan x="7.2" y="24" class="st2 st3">not qualified to do that </tspan><tspan x="84.4" y="48" class="st2 st3">project.”</tspan></text>
</svg>
