<?xml version="1.0" encoding="utf-8"?>
<!-- Generator: Adobe Illustrator 27.3.1, SVG Export Plug-In . SVG Version: 6.00 Build 0)  -->
<svg version="1.1" id="Layer_2" xmlns="http://www.w3.org/2000/svg" xmlns:xlink="http://www.w3.org/1999/xlink" x="0px" y="0px"
	 viewBox="0 0 2433 1600" style="enable-background:new 0 0 2433 1600;" xml:space="preserve">
<style type="text/css">
	.st0{fill:none;stroke:#4D4D4E;stroke-width:25;}
</style>
<path class="st0" d="M1851.7,1093c0,0-22.2-153.4,63.9-191.3c40.2-17.7,70.6-90.8,60.1-133.5c-15.8-64.5-82.6-125.3-174.1-136.8
	c-4.1-0.5-93.4-12-203.5,53.7c-60.4,36-179.6-16.2-228.6-42.2c-49.3-26.1-185.3-28.9-185.3-28.9c0-2.2-44.4-10.5-127.8,32.4
	c-29.9,15.4-33.6,72.6-36.6,106.1c-5,56.4,50.7,121.5,29.1,186.6c-0.6,1.8-23.4,60.9-91.3,47.3c-69.1-13.9-130.3-110.4-155.2-176.3
	c-1.4-3.7-82.6-137.2-202.8-66c-43.1,25.6-71.3,104.3-34.5,163.6c1.2,1.9,96.3,153.9,100.4,224.6s-12.1,74.6-91,136.5
	c-33.9,26.6-143.4,8.7-143.4,8.7"/>
</svg>
